<svg width="38" height="34" viewBox="0 0 38 34" fill="none" xmlns="http://www.w3.org/2000/svg">
<path d="M8.53114 27.0575V29.6999L1.48895 22.2311V19.5858L8.53114 27.0575Z" fill="white"/>
<path d="M25.9086 13.107C25.9086 13.107 17.7679 4.84408 15.0534 2.08491C14.7402 1.76639 14.3681 1.51369 13.9586 1.34128C13.5491 1.16888 13.1101 1.08014 12.6667 1.08014C12.2234 1.08014 11.7844 1.16888 11.3749 1.34128C10.9654 1.51369 10.5933 1.76639 10.28 2.08491C8.9573 3.43384 4.98043 7.46894 4.98043 7.46894L0 12.5289V22.8415L10.0385 33.4898V26.4474L1.80009 17.6881L12.6783 6.64265L26.1386 20.31V13.3026L25.9086 13.107ZM1.4924 19.5859L8.53171 27.0576V29.6854L1.4924 22.2166V19.5859ZM24.629 16.6487L12.6696 4.50247L1.4924 15.8516V13.1625L6.03863 8.54341L11.3382 3.1623C11.6898 2.80535 12.1667 2.60482 12.6639 2.60482C13.1611 2.60482 13.6379 2.80535 13.9895 3.1623C16.4366 5.65285 23.3091 12.6252 24.629 13.9654V16.6487Z" fill="white"/>
<path d="M24.6289 13.9591V16.6481L12.6696 4.50196L1.49237 15.851V13.1619L6.03859 8.5429L11.3382 3.16179C11.6898 2.80484 12.1666 2.60431 12.6638 2.60431C13.161 2.60431 13.6379 2.80484 13.9895 3.16179C16.4394 5.64942 23.3119 12.6247 24.6289 13.9591Z" fill="white"/>
<path d="M27.3434 0V7.00742L35.4639 15.2849L24.5972 26.3187L11.1368 12.6513V19.6587L22.1847 30.8793C22.8256 31.5248 23.6917 31.887 24.5944 31.887C25.497 31.887 26.3631 31.5248 27.004 30.8793L37.2726 20.4529V10.1082L27.3434 0ZM35.7744 19.7989L25.943 29.7786C25.5847 30.1406 25.0998 30.3437 24.5944 30.3437C24.0889 30.3437 23.6041 30.1406 23.2457 29.7786L12.635 19.0047V16.3127L24.5972 28.4589L35.7744 17.1069V19.7989ZM35.7744 13.428L28.8444 6.36799V3.68473L35.7744 10.7418V13.428Z" fill="white"/>
<path d="M35.775 10.7415V13.4277L28.8421 6.3677V3.68445L35.775 10.7415Z" fill="white"/>
<path d="M35.7738 17.1069V19.7989L25.9423 29.7787C25.584 30.1406 25.0991 30.3438 24.5937 30.3438C24.0883 30.3438 23.6034 30.1406 23.2451 29.7787L12.6343 19.0048V16.3127L24.5966 28.4589L35.7738 17.1069Z" fill="white"/>
</svg>
